<mxfile host="Electron" modified="2023-11-11T09:44:43.605Z" agent="Mozilla/5.0 (Windows NT 10.0; Win64; x64) AppleWebKit/537.36 (KHTML, like Gecko) draw.io/21.7.5 Chrome/114.0.5735.289 Electron/25.8.1 Safari/537.36" etag="2XU7h440VNTuqGrPlvWP" compressed="false" version="21.7.5" type="device">
  <diagram id="dzslenoz5EgcA-fO8ZGD" name="Page-1">
    <mxGraphModel dx="2261" dy="884" grid="1" gridSize="10" guides="1" tooltips="1" connect="1" arrows="1" fold="1" page="1" pageScale="1" pageWidth="827" pageHeight="1169" math="0" shadow="0">
      <root>
        <mxCell id="0" />
        <mxCell id="1" parent="0" />
        <object label="org.guce.process.vtm" element="package" placeholders="1" id="Sb3ObpHVFGHvWsoK8jhT-4">
          <mxCell style="shape=folder;fontStyle=1;spacingTop=10;tabWidth=40;tabHeight=14;tabPosition=left;html=1;container=1;fillColor=none;labelPosition=center;verticalLabelPosition=middle;align=center;verticalAlign=middle;spacingLeft=0;fontSize=11;" parent="1" vertex="1">
            <mxGeometry x="-180" y="20" width="870" height="760" as="geometry" />
          </mxCell>
        </object>
        <object label="ModelApproval" element="class" table_name="VTM_APPROVAL_MODEL" package_name="" xml_element="" json_element="" description="&#xa;Gestion des modèles et des types " code="VTM1" columns="modelReference:modelReference,modelDescription:modelDescription,modelSignDate:modelSignDate:date,attestationReference:attestationReference,attestationSignDate:attestationSignDate:date" tilte="" titleEn="Approval model" process_description="&#xa;Gestion des modèles et des types " process_descriptioneN="Approval model management" searchs="modelReference:modelReference,modelDescription:modelDescription,modelMark:modelMark:listOne:VTMModelMark,modelCategory:modelCategory:listOne:VTMModelType,domain:domain:listOne:VTMDomain,modelSignDate:modelSignDate:date,attestationReference:attestationReference,attestationSignDate:attestationSignDate:date" name_field="modelReference" title="Modèle et des type" exportables="modelReference:modelReference,modelDescription:modelDescription,modelMark:modelMark.label,modelCategory:modelCategory.label,modelSignDate:modelSignDate:date,attestationReference:attestationReference,attestationSignDate:attestationSignDate:date" list_title="Liste des modèles et des types" id="sZJGIk07Igp5iyLbuABO-1">
          <mxCell style="swimlane;fontStyle=3;align=center;verticalAlign=top;childLayout=stackLayout;horizontal=1;startSize=26;horizontalStack=0;resizeParent=1;resizeLast=0;collapsible=1;marginBottom=0;rounded=0;shadow=0;strokeWidth=1;fillColor=#f8cecc;strokeColor=#b85450;container=1;snapToPoint=1;fixDash=1;dropTarget=1;expand=1;treeMoving=1;fontSize=14;" parent="Sb3ObpHVFGHvWsoK8jhT-4" vertex="1">
            <mxGeometry x="36.25" y="56.3" width="173.75" height="333.7" as="geometry">
              <mxRectangle x="230" y="140" width="160" height="26" as="alternateBounds" />
            </mxGeometry>
          </mxCell>
        </object>
        <object label="modelReference" type="string" element="field" label_name="N° Arrêté d’Approbation de Modèle" column_name="" max_size="35" min_size="" options="" optionsClass="" nullable="" unique="true" label_nameEn="N° Arrêté d’Approbation de Modèle" sequence="1" id="sZJGIk07Igp5iyLbuABO-5">
          <mxCell style="text;strokeColor=none;fillColor=none;align=left;verticalAlign=top;spacingLeft=4;spacingRight=4;overflow=hidden;rotatable=0;points=[[0,0.5],[1,0.5]];portConstraint=eastwest;connectable=0;allowArrows=0;autosize=0;resizable=0;" parent="sZJGIk07Igp5iyLbuABO-1" vertex="1">
            <mxGeometry y="26" width="173.75" height="26" as="geometry" />
          </mxCell>
        </object>
        <object label="modelDescription" type="string" element="field" label_name="Désignation du Modèle" column_name="" max_size="512" min_size="" options="" optionsClass="" nullable="" unique="" label_nameEn="Désignation du Modèle" sequence="2" id="sZJGIk07Igp5iyLbuABO-6">
          <mxCell style="text;strokeColor=none;fillColor=none;align=left;verticalAlign=top;spacingLeft=4;spacingRight=4;overflow=hidden;rotatable=0;points=[[0,0.5],[1,0.5]];portConstraint=eastwest;connectable=0;allowArrows=0;autosize=0;resizable=0;" parent="sZJGIk07Igp5iyLbuABO-1" vertex="1">
            <mxGeometry y="52" width="173.75" height="26" as="geometry" />
          </mxCell>
        </object>
        <object label="approvalType" type="string" element="field" label_name="Type d&#39;approbation" column_name="" max_size="" min_size="" options="Instrument:Instrument:Instrument,Module:Module:Module" optionsClass="" nullable="" unique="" label_nameEn="Approval type" sequence="5" id="Zkt01J3BL-wLfgVAi6ZR-9">
          <mxCell style="text;strokeColor=none;fillColor=none;align=left;verticalAlign=top;spacingLeft=4;spacingRight=4;overflow=hidden;rotatable=0;points=[[0,0.5],[1,0.5]];portConstraint=eastwest;connectable=0;allowArrows=0;autosize=0;resizable=0;" parent="sZJGIk07Igp5iyLbuABO-1" vertex="1">
            <mxGeometry y="78" width="173.75" height="26" as="geometry" />
          </mxCell>
        </object>
        <object label="modelSignDate" type="date" element="field" label_name="Date Signature" column_name="" max_size="" min_size="" options="" optionsClass="" nullable="" unique="" label_nameEn="Sign Date" sequence="8" id="sZJGIk07Igp5iyLbuABO-17">
          <mxCell style="text;strokeColor=none;fillColor=none;align=left;verticalAlign=top;spacingLeft=4;spacingRight=4;overflow=hidden;rotatable=0;points=[[0,0.5],[1,0.5]];portConstraint=eastwest;connectable=0;allowArrows=0;autosize=0;resizable=0;" parent="sZJGIk07Igp5iyLbuABO-1" vertex="1">
            <mxGeometry y="104" width="173.75" height="26" as="geometry" />
          </mxCell>
        </object>
        <object label="modelSignPlace" type="string" element="field" label_name="Lieu signature Arrêté" column_name="" max_size="" min_size="" options="" optionsClass="" nullable="" unique="" label_nameEn="Lieu signature Arrêté" sequence="9" id="Sgkkib2w53f4yiCSM2_J-4">
          <mxCell style="text;strokeColor=none;fillColor=none;align=left;verticalAlign=top;spacingLeft=4;spacingRight=4;overflow=hidden;rotatable=0;points=[[0,0.5],[1,0.5]];portConstraint=eastwest;connectable=0;allowArrows=0;autosize=0;resizable=0;" parent="sZJGIk07Igp5iyLbuABO-1" vertex="1">
            <mxGeometry y="130" width="173.75" height="26" as="geometry" />
          </mxCell>
        </object>
        <object label="modelSignatory" type="string" element="field" label_name="Signataire Arrêté" column_name="" max_size="" min_size="" options="" optionsClass="" nullable="" unique="" label_nameEn="Signataire Arrêté" sequence="10" id="Sgkkib2w53f4yiCSM2_J-5">
          <mxCell style="text;strokeColor=none;fillColor=none;align=left;verticalAlign=top;spacingLeft=4;spacingRight=4;overflow=hidden;rotatable=0;points=[[0,0.5],[1,0.5]];portConstraint=eastwest;connectable=0;allowArrows=0;autosize=0;resizable=0;" parent="sZJGIk07Igp5iyLbuABO-1" vertex="1">
            <mxGeometry y="156" width="173.75" height="26" as="geometry" />
          </mxCell>
        </object>
        <object label="attestationReference" type="string" element="field" label_name="N° Attestation d’Approbation de Modèle" column_name="" max_size="" min_size="" options="" optionsClass="" nullable="" unique="" label_nameEn="N° Attestation d’Approbation de Modèle" sequence="11" id="Sgkkib2w53f4yiCSM2_J-3">
          <mxCell style="text;strokeColor=none;fillColor=none;align=left;verticalAlign=top;spacingLeft=4;spacingRight=4;overflow=hidden;rotatable=0;points=[[0,0.5],[1,0.5]];portConstraint=eastwest;connectable=0;allowArrows=0;autosize=0;resizable=0;" parent="sZJGIk07Igp5iyLbuABO-1" vertex="1">
            <mxGeometry y="182" width="173.75" height="26" as="geometry" />
          </mxCell>
        </object>
        <object label="attestationSignDate" type="date" element="field" label_name="Date Signature Attestation" column_name="" max_size="" min_size="" options="" optionsClass="" nullable="" unique="" label_nameEn="Date Signature Attestation" sequence="12" id="Sgkkib2w53f4yiCSM2_J-2">
          <mxCell style="text;strokeColor=none;fillColor=none;align=left;verticalAlign=top;spacingLeft=4;spacingRight=4;overflow=hidden;rotatable=0;points=[[0,0.5],[1,0.5]];portConstraint=eastwest;connectable=0;allowArrows=0;autosize=0;resizable=0;" parent="sZJGIk07Igp5iyLbuABO-1" vertex="1">
            <mxGeometry y="208" width="173.75" height="26" as="geometry" />
          </mxCell>
        </object>
        <object label="attestationSignPlace" type="string" element="field" label_name="Lieu signature Attestation" column_name="" max_size="" min_size="" options="" optionsClass="" nullable="" unique="" label_nameEn="Lieu signature Attestation" sequence="13" id="Sgkkib2w53f4yiCSM2_J-1">
          <mxCell style="text;strokeColor=none;fillColor=none;align=left;verticalAlign=top;spacingLeft=4;spacingRight=4;overflow=hidden;rotatable=0;points=[[0,0.5],[1,0.5]];portConstraint=eastwest;connectable=0;allowArrows=0;autosize=0;resizable=0;" parent="sZJGIk07Igp5iyLbuABO-1" vertex="1">
            <mxGeometry y="234" width="173.75" height="26" as="geometry" />
          </mxCell>
        </object>
        <object label="attestationSignatory" type="string" element="field" label_name="Signataire Attestation" column_name="" max_size="" min_size="" options="" optionsClass="" nullable="" unique="" label_nameEn="Signataire Attestation" sequence="15" id="sZJGIk07Igp5iyLbuABO-8">
          <mxCell style="text;strokeColor=none;fillColor=none;align=left;verticalAlign=top;spacingLeft=4;spacingRight=4;overflow=hidden;rotatable=0;points=[[0,0.5],[1,0.5]];portConstraint=eastwest;connectable=0;allowArrows=0;autosize=0;resizable=0;" parent="sZJGIk07Igp5iyLbuABO-1" vertex="1">
            <mxGeometry y="260" width="173.75" height="26" as="geometry" />
          </mxCell>
        </object>
        <mxCell id="sZJGIk07Igp5iyLbuABO-3" value="" style="line;strokeWidth=1;fillColor=none;align=left;verticalAlign=middle;spacingTop=-1;spacingLeft=3;spacingRight=3;rotatable=0;labelPosition=right;points=[];portConstraint=eastwest;" parent="sZJGIk07Igp5iyLbuABO-1" vertex="1">
          <mxGeometry y="286" width="173.75" height="8.32876712328767" as="geometry" />
        </mxCell>
        <object label="MesureAgrement" element="class" table_name="CC_MEASURE_AGREMENT" package_name="" xml_element="" json_element="" description="Gestion des agrements d&#39;importation" code="VTM2" columns="agrementReference:agrementReference,niu:niu,chargerName:chargerName,agrementSignDate:agrementSignDate:date,agrementMark:agrementMark" tilte="" titleEn="Import agrement" process_description="Gestion des agrements d&#39;importation" process_descriptioneN="Import agrement management" searchs="agrementReference:agrementReference,niu:niu,chargerName:chargerName,agrementSignDate:agrementSignDate:date" name_field="agrementReference" title="Agrement d&#39;imporation" exportables="agrementReference:agrementReference,niu:niu,chargerName:chargerName,agrementSignDate:agrementSignDate:date,agrementMark:agrementMark" list_title="Liste des agrements d&#39;importation" requiredList="agrementConditiion1,agrementConditiion2" id="Sgkkib2w53f4yiCSM2_J-7">
          <mxCell style="swimlane;fontStyle=3;align=center;verticalAlign=top;childLayout=stackLayout;horizontal=1;startSize=26;horizontalStack=0;resizeParent=1;resizeLast=0;collapsible=1;marginBottom=0;rounded=0;shadow=0;strokeWidth=1;fillColor=#f8cecc;strokeColor=#b85450;container=1;snapToPoint=1;fixDash=1;dropTarget=1;expand=1;treeMoving=1;fontSize=14;" parent="Sb3ObpHVFGHvWsoK8jhT-4" vertex="1">
            <mxGeometry x="640.41" y="42.22" width="169.59" height="317.78" as="geometry">
              <mxRectangle x="230" y="140" width="160" height="26" as="alternateBounds" />
            </mxGeometry>
          </mxCell>
        </object>
        <object label="agrementReference" type="string" element="field" label_name="N° Agrément" column_name="" max_size="35" min_size="" options="" optionsClass="" nullable="" unique="true" label_nameEn="N° Agrément" sequence="1" id="Sgkkib2w53f4yiCSM2_J-20">
          <mxCell style="text;strokeColor=none;fillColor=none;align=left;verticalAlign=top;spacingLeft=4;spacingRight=4;overflow=hidden;rotatable=0;points=[[0,0.5],[1,0.5]];portConstraint=eastwest;connectable=0;allowArrows=0;autosize=0;resizable=0;" parent="Sgkkib2w53f4yiCSM2_J-7" vertex="1">
            <mxGeometry y="26" width="169.59" height="26" as="geometry" />
          </mxCell>
        </object>
        <object label="niu" type="string" element="field" label_name="Numéro contribuable" column_name="" max_size="35" min_size="" options="" optionsClass="" nullable="" unique="" label_nameEn="Numéro contribuable" sequence="2" id="Sgkkib2w53f4yiCSM2_J-8">
          <mxCell style="text;strokeColor=none;fillColor=none;align=left;verticalAlign=top;spacingLeft=4;spacingRight=4;overflow=hidden;rotatable=0;points=[[0,0.5],[1,0.5]];portConstraint=eastwest;connectable=0;allowArrows=0;autosize=0;resizable=0;" parent="Sgkkib2w53f4yiCSM2_J-7" vertex="1">
            <mxGeometry y="52" width="169.59" height="26" as="geometry" />
          </mxCell>
        </object>
        <object label="chargerName" type="string" element="field" label_name="Nom contribuable" column_name="" max_size="150" min_size="" options="" optionsClass="" nullable="" unique="" label_nameEn="Nom contribuable" sequence="3" id="Sgkkib2w53f4yiCSM2_J-9">
          <mxCell style="text;strokeColor=none;fillColor=none;align=left;verticalAlign=top;spacingLeft=4;spacingRight=4;overflow=hidden;rotatable=0;points=[[0,0.5],[1,0.5]];portConstraint=eastwest;connectable=0;allowArrows=0;autosize=0;resizable=0;" parent="Sgkkib2w53f4yiCSM2_J-7" vertex="1">
            <mxGeometry y="78" width="169.59" height="26" as="geometry" />
          </mxCell>
        </object>
        <object label="agrementMark" type="string" element="field" label_name="Marques d’identification" column_name="" max_size="512" min_size="" options="" optionsClass="" nullable="" unique="" label_nameEn="Marques d’identification" sequence="5" id="Sgkkib2w53f4yiCSM2_J-11">
          <mxCell style="text;strokeColor=none;fillColor=none;align=left;verticalAlign=top;spacingLeft=4;spacingRight=4;overflow=hidden;rotatable=0;points=[[0,0.5],[1,0.5]];portConstraint=eastwest;connectable=0;allowArrows=0;autosize=0;resizable=0;" parent="Sgkkib2w53f4yiCSM2_J-7" vertex="1">
            <mxGeometry y="104" width="169.59" height="26" as="geometry" />
          </mxCell>
        </object>
        <object label="agrementPoinconnage" type="string" element="field" label_name="Poinçonnage" column_name="" max_size="512" min_size="" options="" optionsClass="" nullable="" unique="" label_nameEn="Poinçonnage" sequence="5" id="5RDTnESYEx-ut_DrhfUo-1">
          <mxCell style="text;strokeColor=none;fillColor=none;align=left;verticalAlign=top;spacingLeft=4;spacingRight=4;overflow=hidden;rotatable=0;points=[[0,0.5],[1,0.5]];portConstraint=eastwest;connectable=0;allowArrows=0;autosize=0;resizable=0;" parent="Sgkkib2w53f4yiCSM2_J-7" vertex="1">
            <mxGeometry y="130" width="169.59" height="26" as="geometry" />
          </mxCell>
        </object>
        <object label="agrementConditiion1" type="string" element="field" label_name="Conditions Agrément 1" column_name="" max_size="512" min_size="" options="" optionsClass="" nullable="" unique="" label_nameEn="Conditions Agrément 1" sequence="5" required="false" id="Sgkkib2w53f4yiCSM2_J-12">
          <mxCell style="text;strokeColor=none;fillColor=none;align=left;verticalAlign=top;spacingLeft=4;spacingRight=4;overflow=hidden;rotatable=0;points=[[0,0.5],[1,0.5]];portConstraint=eastwest;connectable=0;allowArrows=0;autosize=0;resizable=0;" parent="Sgkkib2w53f4yiCSM2_J-7" vertex="1">
            <mxGeometry y="156" width="169.59" height="26" as="geometry" />
          </mxCell>
        </object>
        <object label="agrementConditiion2" type="string" element="field" label_name="Conditions Agrément 2" column_name="" max_size="512" min_size="" options="" optionsClass="" nullable="" unique="" label_nameEn="Conditions Agrément 2" sequence="6" required="false" id="Sgkkib2w53f4yiCSM2_J-13">
          <mxCell style="text;strokeColor=none;fillColor=none;align=left;verticalAlign=top;spacingLeft=4;spacingRight=4;overflow=hidden;rotatable=0;points=[[0,0.5],[1,0.5]];portConstraint=eastwest;connectable=0;allowArrows=0;autosize=0;resizable=0;" parent="Sgkkib2w53f4yiCSM2_J-7" vertex="1">
            <mxGeometry y="182" width="169.59" height="26" as="geometry" />
          </mxCell>
        </object>
        <object label="agrementSignDate" type="date" element="field" label_name="Date Signature" column_name="" max_size="" min_size="" options="" optionsClass="" nullable="" unique="" label_nameEn="Date Signature" sequence="7" id="Sgkkib2w53f4yiCSM2_J-14">
          <mxCell style="text;strokeColor=none;fillColor=none;align=left;verticalAlign=top;spacingLeft=4;spacingRight=4;overflow=hidden;rotatable=0;points=[[0,0.5],[1,0.5]];portConstraint=eastwest;connectable=0;allowArrows=0;autosize=0;resizable=0;" parent="Sgkkib2w53f4yiCSM2_J-7" vertex="1">
            <mxGeometry y="208" width="169.59" height="26" as="geometry" />
          </mxCell>
        </object>
        <object label="agrementSignPlace" type="string" element="field" label_name="Lieu signature" column_name="" max_size="" min_size="" options="" optionsClass="" nullable="" unique="" label_nameEn="Lieu signature" sequence="8" id="Sgkkib2w53f4yiCSM2_J-15">
          <mxCell style="text;strokeColor=none;fillColor=none;align=left;verticalAlign=top;spacingLeft=4;spacingRight=4;overflow=hidden;rotatable=0;points=[[0,0.5],[1,0.5]];portConstraint=eastwest;connectable=0;allowArrows=0;autosize=0;resizable=0;" parent="Sgkkib2w53f4yiCSM2_J-7" vertex="1">
            <mxGeometry y="234" width="169.59" height="26" as="geometry" />
          </mxCell>
        </object>
        <object label="agrementSignatory" type="string" element="field" label_name="Signataire" column_name="" max_size="" min_size="" options="" optionsClass="" nullable="" unique="" label_nameEn="Signataire" sequence="9" id="Sgkkib2w53f4yiCSM2_J-16">
          <mxCell style="text;strokeColor=none;fillColor=none;align=left;verticalAlign=top;spacingLeft=4;spacingRight=4;overflow=hidden;rotatable=0;points=[[0,0.5],[1,0.5]];portConstraint=eastwest;connectable=0;allowArrows=0;autosize=0;resizable=0;" parent="Sgkkib2w53f4yiCSM2_J-7" vertex="1">
            <mxGeometry y="260" width="169.59" height="26" as="geometry" />
          </mxCell>
        </object>
        <mxCell id="Sgkkib2w53f4yiCSM2_J-19" value="" style="line;strokeWidth=1;fillColor=none;align=left;verticalAlign=middle;spacingTop=-1;spacingLeft=3;spacingRight=3;rotatable=0;labelPosition=right;points=[];portConstraint=eastwest;" parent="Sgkkib2w53f4yiCSM2_J-7" vertex="1">
          <mxGeometry y="286" width="169.59" height="8.32876712328767" as="geometry" />
        </mxCell>
        <object label="VTMModelMark" element="class" table_name="" package_name="" xml_element="" json_element="" description="Gestion des marques des modèles" code="VTM3" columns="label:label" tilte="" titleEn="Models Mark" process_description="Gestion des marques d’instrument" process_descriptioneN="Models Mark management" searchs="label:label" name_field="label" title="Marque d’instrument" exportables="label:label" list_title="Liste des marques d’instrument" id="Sgkkib2w53f4yiCSM2_J-21">
          <mxCell style="swimlane;fontStyle=3;align=center;verticalAlign=top;childLayout=stackLayout;horizontal=1;startSize=26;horizontalStack=0;resizeParent=1;resizeLast=0;collapsible=1;marginBottom=0;rounded=0;shadow=0;strokeWidth=1;fillColor=#f8cecc;strokeColor=#b85450;container=1;snapToPoint=1;fixDash=1;dropTarget=1;expand=1;treeMoving=1;fontSize=14;" parent="Sb3ObpHVFGHvWsoK8jhT-4" vertex="1">
            <mxGeometry x="47.73" y="577.04" width="152.27" height="82.96" as="geometry">
              <mxRectangle x="230" y="140" width="160" height="26" as="alternateBounds" />
            </mxGeometry>
          </mxCell>
        </object>
        <object label="label" type="string" element="field" label_name="Libelle" column_name="" max_size="" min_size="" options="" optionsClass="" nullable="" unique="" label_nameEn="Label" id="Sgkkib2w53f4yiCSM2_J-23">
          <mxCell style="text;strokeColor=none;fillColor=none;align=left;verticalAlign=top;spacingLeft=4;spacingRight=4;overflow=hidden;rotatable=0;points=[[0,0.5],[1,0.5]];portConstraint=eastwest;connectable=0;allowArrows=0;autosize=0;resizable=0;" parent="Sgkkib2w53f4yiCSM2_J-21" vertex="1">
            <mxGeometry y="26" width="152.27" height="26" as="geometry" />
          </mxCell>
        </object>
        <mxCell id="Sgkkib2w53f4yiCSM2_J-24" value="" style="line;strokeWidth=1;fillColor=none;align=left;verticalAlign=middle;spacingTop=-1;spacingLeft=3;spacingRight=3;rotatable=0;labelPosition=right;points=[];portConstraint=eastwest;" parent="Sgkkib2w53f4yiCSM2_J-21" vertex="1">
          <mxGeometry y="52" width="152.27" height="8.32876712328767" as="geometry" />
        </mxCell>
        <object label="VTMModelType" element="class" table_name="" package_name="" xml_element="" json_element="" description="Gestion des catégories d’instrument" code="VTM4" columns="label:label" tilte="" titleEn="Model Type" process_description="Gestion des catégories d’instrument" process_descriptioneN="Models type management" searchs="label:label" name_field="label" title="Catégorie d’instrument" exportables="label:label" list_title="Liste des catégories d’instrument" id="Sgkkib2w53f4yiCSM2_J-25">
          <mxCell style="swimlane;fontStyle=3;align=center;verticalAlign=top;childLayout=stackLayout;horizontal=1;startSize=26;horizontalStack=0;resizeParent=1;resizeLast=0;collapsible=1;marginBottom=0;rounded=0;shadow=0;strokeWidth=1;fillColor=#f8cecc;strokeColor=#b85450;container=1;snapToPoint=1;fixDash=1;dropTarget=1;expand=1;treeMoving=1;fontSize=14;" parent="Sb3ObpHVFGHvWsoK8jhT-4" vertex="1">
            <mxGeometry x="300" y="70.00000000000001" width="125" height="97.04" as="geometry">
              <mxRectangle x="230" y="140" width="160" height="26" as="alternateBounds" />
            </mxGeometry>
          </mxCell>
        </object>
        <object label="label" type="string" element="field" label_name="Libelle" column_name="" max_size="" min_size="" options="" optionsClass="" nullable="" unique="" label_nameEn="Label" id="Sgkkib2w53f4yiCSM2_J-27">
          <mxCell style="text;strokeColor=none;fillColor=none;align=left;verticalAlign=top;spacingLeft=4;spacingRight=4;overflow=hidden;rotatable=0;points=[[0,0.5],[1,0.5]];portConstraint=eastwest;connectable=0;allowArrows=0;autosize=0;resizable=0;" parent="Sgkkib2w53f4yiCSM2_J-25" vertex="1">
            <mxGeometry y="26" width="125" height="26" as="geometry" />
          </mxCell>
        </object>
        <mxCell id="Sgkkib2w53f4yiCSM2_J-28" value="" style="line;strokeWidth=1;fillColor=none;align=left;verticalAlign=middle;spacingTop=-1;spacingLeft=3;spacingRight=3;rotatable=0;labelPosition=right;points=[];portConstraint=eastwest;" parent="Sgkkib2w53f4yiCSM2_J-25" vertex="1">
          <mxGeometry y="52" width="125" height="8.32876712328767" as="geometry" />
        </mxCell>
        <object label="modelCategory" join_table="" join_column="" inverse_join_column="" mapped_by="" unique="" cascade="" inverse_name="" element="relation" fetch_type="" orphan_removal="" xml_element="" sequence="4" label_name="Catégorie du modèle" id="Sgkkib2w53f4yiCSM2_J-29">
          <mxCell style="endArrow=classic;shadow=0;strokeWidth=1;rounded=0;endFill=1;elbow=vertical;endSize=10;startSize=10;sourcePerimeterSpacing=0;startArrow=oval;startFill=1;align=center;snapToPoint=1;targetPerimeterSpacing=0;fontSize=11;spacingRight=0;spacingBottom=2;spacing=0;fixDash=1;fontColor=#4D9900;fillColor=#d5e8d4;strokeColor=#82B366;" parent="Sb3ObpHVFGHvWsoK8jhT-4" source="sZJGIk07Igp5iyLbuABO-1" target="Sgkkib2w53f4yiCSM2_J-25" edge="1">
            <mxGeometry x="0.2632" y="3" relative="1" as="geometry">
              <mxPoint x="205.41666666666666" y="530.5925925925925" as="sourcePoint" />
              <mxPoint x="351.625" y="432.074074074074" as="targetPoint" />
              <mxPoint as="offset" />
            </mxGeometry>
          </mxCell>
        </object>
        <object label="n" element="card" id="Sgkkib2w53f4yiCSM2_J-30">
          <mxCell style="resizable=0;align=left;verticalAlign=bottom;labelBackgroundColor=none;fontSize=11;fontStyle=1;spacing=4;" parent="Sgkkib2w53f4yiCSM2_J-29" connectable="0" vertex="1">
            <mxGeometry x="-1" relative="1" as="geometry">
              <mxPoint as="offset" />
            </mxGeometry>
          </mxCell>
        </object>
        <object label="1" element="card" id="Sgkkib2w53f4yiCSM2_J-31">
          <mxCell style="resizable=0;align=right;verticalAlign=bottom;labelBackgroundColor=none;fontSize=11;fontStyle=1;spacing=4;" parent="Sgkkib2w53f4yiCSM2_J-29" connectable="0" vertex="1">
            <mxGeometry x="1" relative="1" as="geometry">
              <mxPoint as="offset" />
            </mxGeometry>
          </mxCell>
        </object>
        <object label="modelMark" join_table="" join_column="" inverse_join_column="" mapped_by="" unique="" cascade="" inverse_name="" element="relation" fetch_type="" orphan_removal="" xml_element="" sequence="3" label_name="Marque du modèle" label_nameEn="Model Mark" id="Sgkkib2w53f4yiCSM2_J-32">
          <mxCell style="endArrow=classic;shadow=0;strokeWidth=1;rounded=0;endFill=1;endSize=10;startSize=10;sourcePerimeterSpacing=0;startArrow=oval;startFill=1;align=center;snapToPoint=1;targetPerimeterSpacing=0;fontSize=11;spacingRight=0;spacingBottom=2;spacing=0;fixDash=1;fontColor=#4D9900;fillColor=#d5e8d4;strokeColor=#82B366;" parent="Sb3ObpHVFGHvWsoK8jhT-4" source="sZJGIk07Igp5iyLbuABO-1" target="Sgkkib2w53f4yiCSM2_J-21" edge="1">
            <mxGeometry x="-0.0123" relative="1" as="geometry">
              <mxPoint x="205.41666666666666" y="530.5925925925925" as="sourcePoint" />
              <mxPoint x="351.625" y="432.074074074074" as="targetPoint" />
              <mxPoint as="offset" />
            </mxGeometry>
          </mxCell>
        </object>
        <object label="n" element="card" id="Sgkkib2w53f4yiCSM2_J-33">
          <mxCell style="resizable=0;align=left;verticalAlign=bottom;labelBackgroundColor=none;fontSize=11;fontStyle=1;spacing=4;" parent="Sgkkib2w53f4yiCSM2_J-32" connectable="0" vertex="1">
            <mxGeometry x="-1" relative="1" as="geometry">
              <mxPoint as="offset" />
            </mxGeometry>
          </mxCell>
        </object>
        <object label="1" element="card" id="Sgkkib2w53f4yiCSM2_J-34">
          <mxCell style="resizable=0;align=right;verticalAlign=bottom;labelBackgroundColor=none;fontSize=11;fontStyle=1;spacing=4;" parent="Sgkkib2w53f4yiCSM2_J-32" connectable="0" vertex="1">
            <mxGeometry x="1" relative="1" as="geometry">
              <mxPoint as="offset" />
            </mxGeometry>
          </mxCell>
        </object>
        <object label="VTMDomain" element="class" table_name="" package_name="" xml_element="" json_element="" description="Gestion des domaines" code="VTM5" columns="label:label" tilte="" titleEn="Domain" process_description="Gestion des domaines" process_descriptioneN="Domain management" searchs="label:label" name_field="label" title="Domaine" exportables="label:label" list_title="Liste des domaines" id="Zkt01J3BL-wLfgVAi6ZR-1">
          <mxCell style="swimlane;fontStyle=3;align=center;verticalAlign=top;childLayout=stackLayout;horizontal=1;startSize=26;horizontalStack=0;resizeParent=1;resizeLast=0;collapsible=1;marginBottom=0;rounded=0;shadow=0;strokeWidth=1;fillColor=#f8cecc;strokeColor=#b85450;container=1;snapToPoint=1;fixDash=1;dropTarget=1;expand=1;treeMoving=1;fontSize=14;" parent="Sb3ObpHVFGHvWsoK8jhT-4" vertex="1">
            <mxGeometry x="338.66" y="617.04" width="121.34" height="82.96" as="geometry">
              <mxRectangle x="230" y="140" width="160" height="26" as="alternateBounds" />
            </mxGeometry>
          </mxCell>
        </object>
        <object label="label" type="string" element="field" label_name="Libelle" column_name="" max_size="" min_size="" options="" optionsClass="" nullable="" unique="" label_nameEn="Label" id="Zkt01J3BL-wLfgVAi6ZR-3">
          <mxCell style="text;strokeColor=none;fillColor=none;align=left;verticalAlign=top;spacingLeft=4;spacingRight=4;overflow=hidden;rotatable=0;points=[[0,0.5],[1,0.5]];portConstraint=eastwest;connectable=0;allowArrows=0;autosize=0;resizable=0;" parent="Zkt01J3BL-wLfgVAi6ZR-1" vertex="1">
            <mxGeometry y="26" width="121.34" height="26" as="geometry" />
          </mxCell>
        </object>
        <mxCell id="Zkt01J3BL-wLfgVAi6ZR-4" value="" style="line;strokeWidth=1;fillColor=none;align=left;verticalAlign=middle;spacingTop=-1;spacingLeft=3;spacingRight=3;rotatable=0;labelPosition=right;points=[];portConstraint=eastwest;" parent="Zkt01J3BL-wLfgVAi6ZR-1" vertex="1">
          <mxGeometry y="52" width="121.34" height="8.32876712328767" as="geometry" />
        </mxCell>
        <object label="VTMApplicationField" element="class" table_name="" package_name="" xml_element="" json_element="" description="Gestion des champs d&#39;application" code="VTM6" columns="label:label" tilte="" titleEn="Application field" process_description="Gestion des champs d&#39;application" process_descriptioneN="Application field management" searchs="label:label" name_field="label" title="Champ d&#39;application" exportables="label:label" list_title="Liste des champs d&#39;application" id="Zkt01J3BL-wLfgVAi6ZR-5">
          <mxCell style="swimlane;fontStyle=3;align=center;verticalAlign=top;childLayout=stackLayout;horizontal=1;startSize=26;horizontalStack=0;resizeParent=1;resizeLast=0;collapsible=1;marginBottom=0;rounded=0;shadow=0;strokeWidth=1;fillColor=#f8cecc;strokeColor=#b85450;container=1;snapToPoint=1;fixDash=1;dropTarget=1;expand=1;treeMoving=1;fontSize=14;" parent="Sb3ObpHVFGHvWsoK8jhT-4" vertex="1">
            <mxGeometry x="600" y="530" width="180" height="110" as="geometry">
              <mxRectangle x="230" y="140" width="160" height="26" as="alternateBounds" />
            </mxGeometry>
          </mxCell>
        </object>
        <object label="label" type="string" element="field" label_name="Libelle" column_name="" max_size="" min_size="" options="" optionsClass="" nullable="" unique="" label_nameEn="Label" id="Zkt01J3BL-wLfgVAi6ZR-7">
          <mxCell style="text;strokeColor=none;fillColor=none;align=left;verticalAlign=top;spacingLeft=4;spacingRight=4;overflow=hidden;rotatable=0;points=[[0,0.5],[1,0.5]];portConstraint=eastwest;connectable=0;allowArrows=0;autosize=0;resizable=0;" parent="Zkt01J3BL-wLfgVAi6ZR-5" vertex="1">
            <mxGeometry y="26" width="180" height="26" as="geometry" />
          </mxCell>
        </object>
        <mxCell id="Zkt01J3BL-wLfgVAi6ZR-8" value="" style="line;strokeWidth=1;fillColor=none;align=left;verticalAlign=middle;spacingTop=-1;spacingLeft=3;spacingRight=3;rotatable=0;labelPosition=right;points=[];portConstraint=eastwest;" parent="Zkt01J3BL-wLfgVAi6ZR-5" vertex="1">
          <mxGeometry y="52" width="180" height="8.32876712328767" as="geometry" />
        </mxCell>
        <object label="domain" join_table="" join_column="DOMAIN" inverse_join_column="" mapped_by="" unique="" cascade="" inverse_name="" element="relation" fetch_type="" orphan_removal="" xml_element="" sequence="6" label_name="Domaine" label_nameEn="Domain" id="Zkt01J3BL-wLfgVAi6ZR-19">
          <mxCell style="endArrow=classic;shadow=0;strokeWidth=1;rounded=0;endFill=1;endSize=10;startSize=10;sourcePerimeterSpacing=0;startArrow=oval;startFill=1;align=center;snapToPoint=1;targetPerimeterSpacing=0;fontSize=11;spacingRight=0;spacingBottom=2;spacing=0;fixDash=1;fontColor=#4D9900;fillColor=#d5e8d4;strokeColor=#82B366;" parent="Sb3ObpHVFGHvWsoK8jhT-4" source="sZJGIk07Igp5iyLbuABO-1" target="Zkt01J3BL-wLfgVAi6ZR-1" edge="1">
            <mxGeometry x="-0.0123" relative="1" as="geometry">
              <mxPoint x="-25.375" y="622.074074074074" as="sourcePoint" />
              <mxPoint x="-25.375" y="689.6296296296296" as="targetPoint" />
              <mxPoint as="offset" />
              <Array as="points">
                <mxPoint x="326.25" y="548.8888888888888" />
              </Array>
            </mxGeometry>
          </mxCell>
        </object>
        <object label="n" element="card" id="Zkt01J3BL-wLfgVAi6ZR-20">
          <mxCell style="resizable=0;align=left;verticalAlign=bottom;labelBackgroundColor=none;fontSize=11;fontStyle=1;spacing=4;" parent="Zkt01J3BL-wLfgVAi6ZR-19" connectable="0" vertex="1">
            <mxGeometry x="-1" relative="1" as="geometry">
              <mxPoint as="offset" />
            </mxGeometry>
          </mxCell>
        </object>
        <object label="1" element="card" id="Zkt01J3BL-wLfgVAi6ZR-21">
          <mxCell style="resizable=0;align=right;verticalAlign=bottom;labelBackgroundColor=none;fontSize=11;fontStyle=1;spacing=4;" parent="Zkt01J3BL-wLfgVAi6ZR-19" connectable="0" vertex="1">
            <mxGeometry x="1" relative="1" as="geometry">
              <mxPoint as="offset" />
            </mxGeometry>
          </mxCell>
        </object>
        <object label="applicationField" join_table="" join_column="APPLICATIONFIELD" inverse_join_column="" mapped_by="" unique="" cascade="" inverse_name="" element="relation" fetch_type="" orphan_removal="" xml_element="" sequence="7" label_name="Champ d&#39;application" label_nameEn="Application field" id="Zkt01J3BL-wLfgVAi6ZR-22">
          <mxCell style="endArrow=classic;shadow=0;strokeWidth=1;rounded=0;endFill=1;endSize=10;startSize=10;sourcePerimeterSpacing=0;startArrow=oval;startFill=1;align=center;snapToPoint=1;targetPerimeterSpacing=0;fontSize=11;spacingRight=0;spacingBottom=2;spacing=0;fixDash=1;fontColor=#4D9900;fillColor=#d5e8d4;strokeColor=#82B366;" parent="Sb3ObpHVFGHvWsoK8jhT-4" source="sZJGIk07Igp5iyLbuABO-1" target="Zkt01J3BL-wLfgVAi6ZR-5" edge="1">
            <mxGeometry x="-0.0123" relative="1" as="geometry">
              <mxPoint x="82.16666666666666" y="622.074074074074" as="sourcePoint" />
              <mxPoint x="71.29166666666666" y="689.6296296296296" as="targetPoint" />
              <mxPoint as="offset" />
              <Array as="points">
                <mxPoint x="338.3333333333333" y="436.29629629629625" />
              </Array>
            </mxGeometry>
          </mxCell>
        </object>
        <object label="n" element="card" id="Zkt01J3BL-wLfgVAi6ZR-23">
          <mxCell style="resizable=0;align=left;verticalAlign=bottom;labelBackgroundColor=none;fontSize=11;fontStyle=1;spacing=4;" parent="Zkt01J3BL-wLfgVAi6ZR-22" connectable="0" vertex="1">
            <mxGeometry x="-1" relative="1" as="geometry">
              <mxPoint as="offset" />
            </mxGeometry>
          </mxCell>
        </object>
        <object label="1" element="card" id="Zkt01J3BL-wLfgVAi6ZR-24">
          <mxCell style="resizable=0;align=right;verticalAlign=bottom;labelBackgroundColor=none;fontSize=11;fontStyle=1;spacing=4;" parent="Zkt01J3BL-wLfgVAi6ZR-22" connectable="0" vertex="1">
            <mxGeometry x="1" relative="1" as="geometry">
              <mxPoint as="offset" />
            </mxGeometry>
          </mxCell>
        </object>
        <object label="domain" join_table="" join_column="" inverse_join_column="" mapped_by="" unique="" cascade="" inverse_name="applicationFields" element="relation" fetch_type="" orphan_removal="" xml_element="" sequence="6" label_name="Domaine" label_nameEn="Domain" bidirectionel="true" id="Zkt01J3BL-wLfgVAi6ZR-25">
          <mxCell style="endArrow=classic;shadow=0;strokeWidth=1;rounded=0;endFill=1;endSize=10;startSize=10;sourcePerimeterSpacing=0;startArrow=oval;startFill=1;align=center;snapToPoint=1;targetPerimeterSpacing=0;fontSize=11;spacingRight=0;spacingBottom=2;spacing=0;fixDash=1;fontColor=#4D9900;fillColor=#d5e8d4;strokeColor=#82B366;" parent="Sb3ObpHVFGHvWsoK8jhT-4" source="Zkt01J3BL-wLfgVAi6ZR-5" target="Zkt01J3BL-wLfgVAi6ZR-1" edge="1">
            <mxGeometry x="-0.0123" relative="1" as="geometry">
              <mxPoint x="45.916666666666664" y="579.8518518518518" as="sourcePoint" />
              <mxPoint x="132.91666666666666" y="689.6296296296296" as="targetPoint" />
              <mxPoint as="offset" />
              <Array as="points">
                <mxPoint x="580" y="676.9629629629629" />
                <mxPoint x="555.8333333333333" y="675.5555555555555" />
              </Array>
            </mxGeometry>
          </mxCell>
        </object>
        <object label="n" element="card" id="Zkt01J3BL-wLfgVAi6ZR-26">
          <mxCell style="resizable=0;align=left;verticalAlign=bottom;labelBackgroundColor=none;fontSize=11;fontStyle=1;spacing=4;" parent="Zkt01J3BL-wLfgVAi6ZR-25" connectable="0" vertex="1">
            <mxGeometry x="-1" relative="1" as="geometry">
              <mxPoint as="offset" />
            </mxGeometry>
          </mxCell>
        </object>
        <object label="1" element="card" id="Zkt01J3BL-wLfgVAi6ZR-27">
          <mxCell style="resizable=0;align=right;verticalAlign=bottom;labelBackgroundColor=none;fontSize=11;fontStyle=1;spacing=4;" parent="Zkt01J3BL-wLfgVAi6ZR-25" connectable="0" vertex="1">
            <mxGeometry x="1" relative="1" as="geometry">
              <mxPoint as="offset" />
            </mxGeometry>
          </mxCell>
        </object>
        <object label="domains" join_table="VTM_DOMAIN_AGREEMENT" join_column="" inverse_join_column="" mapped_by="" unique="" cascade="" inverse_name="" element="relation" fetch_type="" orphan_removal="" xml_element="" sequence="6" label_name="Domaines" label_nameEn="Domains" id="5RDTnESYEx-ut_DrhfUo-2">
          <mxCell style="endArrow=classic;shadow=0;strokeWidth=1;rounded=0;endFill=1;endSize=10;startSize=10;sourcePerimeterSpacing=0;startArrow=oval;startFill=1;align=center;snapToPoint=1;targetPerimeterSpacing=0;fontSize=11;spacingRight=0;spacingBottom=2;spacing=0;fixDash=1;fontColor=#4D9900;fillColor=#d5e8d4;strokeColor=#82B366;entryX=0.75;entryY=0;entryDx=0;entryDy=0;" parent="Sb3ObpHVFGHvWsoK8jhT-4" source="Sgkkib2w53f4yiCSM2_J-7" target="Zkt01J3BL-wLfgVAi6ZR-1" edge="1">
            <mxGeometry x="-0.0123" relative="1" as="geometry">
              <mxPoint x="-25.375" y="622.074074074074" as="sourcePoint" />
              <mxPoint x="-25.375" y="689.6296296296296" as="targetPoint" />
              <mxPoint as="offset" />
              <Array as="points">
                <mxPoint x="555.8333333333333" y="408.1481481481481" />
              </Array>
            </mxGeometry>
          </mxCell>
        </object>
        <object label="n" element="card" id="5RDTnESYEx-ut_DrhfUo-3">
          <mxCell style="resizable=0;align=left;verticalAlign=bottom;labelBackgroundColor=none;fontSize=11;fontStyle=1;spacing=4;" parent="5RDTnESYEx-ut_DrhfUo-2" connectable="0" vertex="1">
            <mxGeometry x="-1" relative="1" as="geometry">
              <mxPoint as="offset" />
            </mxGeometry>
          </mxCell>
        </object>
        <object label="n" element="card" id="5RDTnESYEx-ut_DrhfUo-4">
          <mxCell style="resizable=0;align=right;verticalAlign=bottom;labelBackgroundColor=none;fontSize=11;fontStyle=1;spacing=4;" parent="5RDTnESYEx-ut_DrhfUo-2" connectable="0" vertex="1">
            <mxGeometry x="1" relative="1" as="geometry">
              <mxPoint as="offset" />
            </mxGeometry>
          </mxCell>
        </object>
        <object label="applicationsField" join_table="VTM_APPLICATION_AGREEMENT" join_column="" inverse_join_column="" mapped_by="" unique="" cascade="" inverse_name="" element="relation" fetch_type="" orphan_removal="" xml_element="" sequence="6" label_name="Champs d&#39;application" label_nameEn="Applications field" id="5RDTnESYEx-ut_DrhfUo-5">
          <mxCell style="endArrow=classic;shadow=0;strokeWidth=1;rounded=0;endFill=1;endSize=10;startSize=10;sourcePerimeterSpacing=0;startArrow=oval;startFill=1;align=center;snapToPoint=1;targetPerimeterSpacing=0;fontSize=11;spacingRight=0;spacingBottom=2;spacing=0;fixDash=1;fontColor=#4D9900;fillColor=#d5e8d4;strokeColor=#82B366;" parent="Sb3ObpHVFGHvWsoK8jhT-4" source="Sgkkib2w53f4yiCSM2_J-7" target="Zkt01J3BL-wLfgVAi6ZR-5" edge="1">
            <mxGeometry x="-0.0123" relative="1" as="geometry">
              <mxPoint x="628.3333333333333" y="478.5185185185185" as="sourcePoint" />
              <mxPoint x="277.74617579908704" y="689.631111111111" as="targetPoint" />
              <mxPoint as="offset" />
              <Array as="points">
                <mxPoint x="735" y="510" />
              </Array>
            </mxGeometry>
          </mxCell>
        </object>
        <object label="n" element="card" id="5RDTnESYEx-ut_DrhfUo-6">
          <mxCell style="resizable=0;align=left;verticalAlign=bottom;labelBackgroundColor=none;fontSize=11;fontStyle=1;spacing=4;" parent="5RDTnESYEx-ut_DrhfUo-5" connectable="0" vertex="1">
            <mxGeometry x="-1" relative="1" as="geometry">
              <mxPoint as="offset" />
            </mxGeometry>
          </mxCell>
        </object>
        <object label="n" element="card" id="5RDTnESYEx-ut_DrhfUo-7">
          <mxCell style="resizable=0;align=right;verticalAlign=bottom;labelBackgroundColor=none;fontSize=11;fontStyle=1;spacing=4;" parent="5RDTnESYEx-ut_DrhfUo-5" connectable="0" vertex="1">
            <mxGeometry x="1" relative="1" as="geometry">
              <mxPoint as="offset" />
            </mxGeometry>
          </mxCell>
        </object>
        <object label="VtmExpedition" element="class" table_name="VTM_EXPEDITION" package_name="" xml_element="" json_element="" description="&#xa;Gestion des modèles et des types " code="VTM7" columns="reference:reference,description:description,sendDate:sendDate:date,niu:niu,chargerName:chargerName,quantity:quantity:number,modelMark:modelMark.label,domain:domain.label" tilte="" titleEn="Expedition" process_description="&#xa;Gestion des modèles et des types " process_descriptioneN="Expeditions list" searchs="reference:reference,description:description,modelMark:modelMark:listOne:VTMModelMark,modelCategory:modelCategory:listOne:VTMModelType,domain:domain:listOne:VTMDomain,country:country:listOne:CorePays,sendDate:sendDate:date" name_field="reference" title="Expédition" exportables="reference:reference,blNumber:blNumber,description:description,sendDate:sendDate:date,niu:niu,chargerName:chargerName,quantity:quantity:number,modelMark:modelMark.label,modelCategory:modelCategory.label,domain:domain.label,applicationField:applicationField.label,transportMode:transportMode.transModeLibelle,country:country.libellePays" list_title="Liste des expéditions" id="LjmkipDc2EaUrjd0nFta-1">
          <mxCell style="swimlane;fontStyle=3;align=center;verticalAlign=top;childLayout=stackLayout;horizontal=1;startSize=26;horizontalStack=0;resizeParent=1;resizeLast=0;collapsible=1;marginBottom=0;rounded=0;shadow=0;strokeWidth=1;fillColor=#f8cecc;strokeColor=#b85450;container=1;snapToPoint=1;fixDash=1;dropTarget=1;expand=1;treeMoving=1;fontSize=14;" parent="Sb3ObpHVFGHvWsoK8jhT-4" vertex="1">
            <mxGeometry x="460" y="200" width="150" height="230" as="geometry">
              <mxRectangle x="230" y="140" width="160" height="26" as="alternateBounds" />
            </mxGeometry>
          </mxCell>
        </object>
        <object label="reference" type="string" element="field" label_name="N° Expédition" column_name="RECORD_ID" max_size="35" min_size="" options="" optionsClass="" nullable="" unique="true" label_nameEn="N° Expédition" sequence="1" id="LjmkipDc2EaUrjd0nFta-2">
          <mxCell style="text;strokeColor=none;fillColor=none;align=left;verticalAlign=top;spacingLeft=4;spacingRight=4;overflow=hidden;rotatable=0;points=[[0,0.5],[1,0.5]];portConstraint=eastwest;connectable=0;allowArrows=0;autosize=0;resizable=0;" parent="LjmkipDc2EaUrjd0nFta-1" vertex="1">
            <mxGeometry y="26" width="150" height="26" as="geometry" />
          </mxCell>
        </object>
        <object label="blNumber" type="string" element="field" label_name="N° BL" column_name="BLNUMBER" max_size="" min_size="" options="" optionsClass="" nullable="" unique="" label_nameEn="N° BL" sequence="11" id="LjmkipDc2EaUrjd0nFta-8">
          <mxCell style="text;strokeColor=none;fillColor=none;align=left;verticalAlign=top;spacingLeft=4;spacingRight=4;overflow=hidden;rotatable=0;points=[[0,0.5],[1,0.5]];portConstraint=eastwest;connectable=0;allowArrows=0;autosize=0;resizable=0;" parent="LjmkipDc2EaUrjd0nFta-1" vertex="1">
            <mxGeometry y="52" width="150" height="26" as="geometry" />
          </mxCell>
        </object>
        <object label="niu" type="string" element="field" label_name="N° NIU" column_name="NIU" max_size="" min_size="" options="" optionsClass="" nullable="" unique="" label_nameEn="N° NIU" sequence="13" id="LjmkipDc2EaUrjd0nFta-13">
          <mxCell style="text;strokeColor=none;fillColor=none;align=left;verticalAlign=top;spacingLeft=4;spacingRight=4;overflow=hidden;rotatable=0;points=[[0,0.5],[1,0.5]];portConstraint=eastwest;connectable=0;allowArrows=0;autosize=0;resizable=0;" parent="LjmkipDc2EaUrjd0nFta-1" vertex="1">
            <mxGeometry y="78" width="150" height="26" as="geometry" />
          </mxCell>
        </object>
        <object label="chargerName" type="string" element="field" label_name="Nom Contribuable" column_name="CHARGER_NAME" max_size="" min_size="" options="" optionsClass="" nullable="" unique="" label_nameEn="Taxpayer Number" sequence="14" id="LjmkipDc2EaUrjd0nFta-14">
          <mxCell style="text;strokeColor=none;fillColor=none;align=left;verticalAlign=top;spacingLeft=4;spacingRight=4;overflow=hidden;rotatable=0;points=[[0,0.5],[1,0.5]];portConstraint=eastwest;connectable=0;allowArrows=0;autosize=0;resizable=0;" parent="LjmkipDc2EaUrjd0nFta-1" vertex="1">
            <mxGeometry y="104" width="150" height="26" as="geometry" />
          </mxCell>
        </object>
        <object label="sendDate" type="date" element="field" label_name="Date Expedition" column_name="SEND_DATE" max_size="" min_size="" options="" optionsClass="" nullable="" unique="" label_nameEn="Expedition Date" sequence="8" id="LjmkipDc2EaUrjd0nFta-39">
          <mxCell style="text;strokeColor=none;fillColor=none;align=left;verticalAlign=top;spacingLeft=4;spacingRight=4;overflow=hidden;rotatable=0;points=[[0,0.5],[1,0.5]];portConstraint=eastwest;connectable=0;allowArrows=0;autosize=0;resizable=0;" parent="LjmkipDc2EaUrjd0nFta-1" vertex="1">
            <mxGeometry y="130" width="150" height="26" as="geometry" />
          </mxCell>
        </object>
        <object label="quantity" type="bigDecimal" element="field" label_name="Quantité" column_name="GOOD_QUANTITY" max_size="" min_size="" options="" optionsClass="" nullable="" unique="" label_nameEn="Quantity" sequence="8" id="LjmkipDc2EaUrjd0nFta-40">
          <mxCell style="text;strokeColor=none;fillColor=none;align=left;verticalAlign=top;spacingLeft=4;spacingRight=4;overflow=hidden;rotatable=0;points=[[0,0.5],[1,0.5]];portConstraint=eastwest;connectable=0;allowArrows=0;autosize=0;resizable=0;" parent="LjmkipDc2EaUrjd0nFta-1" vertex="1">
            <mxGeometry y="156" width="150" height="26" as="geometry" />
          </mxCell>
        </object>
        <object label="description" type="string" element="field" label_name="Description" column_name="GOOD_CODE" max_size="512" min_size="" options="" optionsClass="" nullable="" unique="" label_nameEn="Description" sequence="5" required="false" id="LjmkipDc2EaUrjd0nFta-41">
          <mxCell style="text;strokeColor=none;fillColor=none;align=left;verticalAlign=top;spacingLeft=4;spacingRight=4;overflow=hidden;rotatable=0;points=[[0,0.5],[1,0.5]];portConstraint=eastwest;connectable=0;allowArrows=0;autosize=0;resizable=0;" parent="LjmkipDc2EaUrjd0nFta-1" vertex="1">
            <mxGeometry y="182" width="150" height="26" as="geometry" />
          </mxCell>
        </object>
        <mxCell id="LjmkipDc2EaUrjd0nFta-12" value="" style="line;strokeWidth=1;fillColor=none;align=left;verticalAlign=middle;spacingTop=-1;spacingLeft=3;spacingRight=3;rotatable=0;labelPosition=right;points=[];portConstraint=eastwest;" parent="LjmkipDc2EaUrjd0nFta-1" vertex="1">
          <mxGeometry y="208" width="150" height="5.917808219178083" as="geometry" />
        </mxCell>
        <object label="modelCategory" join_table="" join_column="VTM_MODEL_TYPE" inverse_join_column="" mapped_by="" unique="" cascade="" inverse_name="" element="relation" fetch_type="" orphan_removal="" xml_element="" sequence="4" label_name="Catégorie du modèle" id="LjmkipDc2EaUrjd0nFta-18">
          <mxCell style="endArrow=classic;shadow=0;strokeWidth=1;rounded=0;endFill=1;elbow=vertical;endSize=10;startSize=10;sourcePerimeterSpacing=0;startArrow=oval;startFill=1;align=center;snapToPoint=1;targetPerimeterSpacing=0;fontSize=11;spacingRight=0;spacingBottom=2;spacing=0;fixDash=1;fontColor=#4D9900;fillColor=#d5e8d4;strokeColor=#82B366;" parent="Sb3ObpHVFGHvWsoK8jhT-4" source="LjmkipDc2EaUrjd0nFta-1" target="Sgkkib2w53f4yiCSM2_J-25" edge="1">
            <mxGeometry x="0.2632" y="3" relative="1" as="geometry">
              <mxPoint x="205.41666666666666" y="530.5925925925925" as="sourcePoint" />
              <mxPoint x="351.625" y="432.074074074074" as="targetPoint" />
              <mxPoint as="offset" />
            </mxGeometry>
          </mxCell>
        </object>
        <object label="n" element="card" id="LjmkipDc2EaUrjd0nFta-19">
          <mxCell style="resizable=0;align=left;verticalAlign=bottom;labelBackgroundColor=none;fontSize=11;fontStyle=1;spacing=4;" parent="LjmkipDc2EaUrjd0nFta-18" connectable="0" vertex="1">
            <mxGeometry x="-1" relative="1" as="geometry">
              <mxPoint as="offset" />
            </mxGeometry>
          </mxCell>
        </object>
        <object label="1" element="card" id="LjmkipDc2EaUrjd0nFta-20">
          <mxCell style="resizable=0;align=right;verticalAlign=bottom;labelBackgroundColor=none;fontSize=11;fontStyle=1;spacing=4;" parent="LjmkipDc2EaUrjd0nFta-18" connectable="0" vertex="1">
            <mxGeometry x="1" relative="1" as="geometry">
              <mxPoint as="offset" />
            </mxGeometry>
          </mxCell>
        </object>
        <object label="applicationField" join_table="" join_column="VTM_APPLICATION_FIELD" inverse_join_column="" mapped_by="" unique="" cascade="" inverse_name="" element="relation" fetch_type="" orphan_removal="" xml_element="" sequence="7" label_name="Champ d&#39;application" label_nameEn="Application field" id="LjmkipDc2EaUrjd0nFta-27">
          <mxCell style="endArrow=classic;shadow=0;strokeWidth=1;rounded=0;endFill=1;endSize=10;startSize=10;sourcePerimeterSpacing=0;startArrow=oval;startFill=1;align=center;snapToPoint=1;targetPerimeterSpacing=0;fontSize=11;spacingRight=0;spacingBottom=2;spacing=0;fixDash=1;fontColor=#4D9900;fillColor=#d5e8d4;strokeColor=#82B366;" parent="Sb3ObpHVFGHvWsoK8jhT-4" source="LjmkipDc2EaUrjd0nFta-1" target="Zkt01J3BL-wLfgVAi6ZR-5" edge="1">
            <mxGeometry x="-0.0123" relative="1" as="geometry">
              <mxPoint x="82.16666666666666" y="622.074074074074" as="sourcePoint" />
              <mxPoint x="71.29166666666666" y="689.6296296296296" as="targetPoint" />
              <mxPoint as="offset" />
              <Array as="points">
                <mxPoint x="610" y="460" />
              </Array>
            </mxGeometry>
          </mxCell>
        </object>
        <object label="n" element="card" id="LjmkipDc2EaUrjd0nFta-28">
          <mxCell style="resizable=0;align=left;verticalAlign=bottom;labelBackgroundColor=none;fontSize=11;fontStyle=1;spacing=4;" parent="LjmkipDc2EaUrjd0nFta-27" connectable="0" vertex="1">
            <mxGeometry x="-1" relative="1" as="geometry">
              <mxPoint as="offset" />
            </mxGeometry>
          </mxCell>
        </object>
        <object label="1" element="card" id="LjmkipDc2EaUrjd0nFta-29">
          <mxCell style="resizable=0;align=right;verticalAlign=bottom;labelBackgroundColor=none;fontSize=11;fontStyle=1;spacing=4;" parent="LjmkipDc2EaUrjd0nFta-27" connectable="0" vertex="1">
            <mxGeometry x="1" relative="1" as="geometry">
              <mxPoint as="offset" />
            </mxGeometry>
          </mxCell>
        </object>
        <object label="domain" join_table="" join_column="VTM_MODEL_DOMAIN" inverse_join_column="" mapped_by="" unique="" cascade="" inverse_name="" element="relation" fetch_type="" orphan_removal="" xml_element="" sequence="6" label_name="Domaine" label_nameEn="Domain" id="LjmkipDc2EaUrjd0nFta-30">
          <mxCell style="endArrow=classic;shadow=0;strokeWidth=1;rounded=0;endFill=1;endSize=10;startSize=10;sourcePerimeterSpacing=0;startArrow=oval;startFill=1;align=center;snapToPoint=1;targetPerimeterSpacing=0;fontSize=11;spacingRight=0;spacingBottom=2;spacing=0;fixDash=1;fontColor=#4D9900;fillColor=#d5e8d4;strokeColor=#82B366;" parent="Sb3ObpHVFGHvWsoK8jhT-4" source="LjmkipDc2EaUrjd0nFta-1" target="Zkt01J3BL-wLfgVAi6ZR-1" edge="1">
            <mxGeometry x="-0.0123" relative="1" as="geometry">
              <mxPoint x="-25.375" y="622.074074074074" as="sourcePoint" />
              <mxPoint x="-25.375" y="689.6296296296296" as="targetPoint" />
              <mxPoint as="offset" />
              <Array as="points" />
            </mxGeometry>
          </mxCell>
        </object>
        <object label="n" element="card" id="LjmkipDc2EaUrjd0nFta-31">
          <mxCell style="resizable=0;align=left;verticalAlign=bottom;labelBackgroundColor=none;fontSize=11;fontStyle=1;spacing=4;" parent="LjmkipDc2EaUrjd0nFta-30" connectable="0" vertex="1">
            <mxGeometry x="-1" relative="1" as="geometry">
              <mxPoint as="offset" />
            </mxGeometry>
          </mxCell>
        </object>
        <object label="1" element="card" id="LjmkipDc2EaUrjd0nFta-32">
          <mxCell style="resizable=0;align=right;verticalAlign=bottom;labelBackgroundColor=none;fontSize=11;fontStyle=1;spacing=4;" parent="LjmkipDc2EaUrjd0nFta-30" connectable="0" vertex="1">
            <mxGeometry x="1" relative="1" as="geometry">
              <mxPoint as="offset" />
            </mxGeometry>
          </mxCell>
        </object>
        <object label="approvalModel" join_table="" join_column="VTM_MODEL_APPROVAL" inverse_join_column="" mapped_by="" unique="" cascade="" inverse_name="" element="relation" fetch_type="" orphan_removal="" xml_element="" sequence="3" label_name="Rerefernce modèle approuvé" label_nameEn="Approval model reference" id="LjmkipDc2EaUrjd0nFta-33">
          <mxCell style="endArrow=classic;shadow=0;strokeWidth=1;rounded=0;endFill=1;endSize=10;startSize=10;sourcePerimeterSpacing=0;startArrow=oval;startFill=1;align=center;snapToPoint=1;targetPerimeterSpacing=0;fontSize=11;spacingRight=0;spacingBottom=2;spacing=0;fixDash=1;fontColor=#4D9900;fillColor=#d5e8d4;strokeColor=#82B366;" parent="Sb3ObpHVFGHvWsoK8jhT-4" source="LjmkipDc2EaUrjd0nFta-1" target="sZJGIk07Igp5iyLbuABO-1" edge="1">
            <mxGeometry x="-0.0123" relative="1" as="geometry">
              <mxPoint x="205.41666666666666" y="530.5925925925925" as="sourcePoint" />
              <mxPoint x="170" y="250" as="targetPoint" />
              <mxPoint as="offset" />
            </mxGeometry>
          </mxCell>
        </object>
        <object label="n" element="card" id="LjmkipDc2EaUrjd0nFta-34">
          <mxCell style="resizable=0;align=left;verticalAlign=bottom;labelBackgroundColor=none;fontSize=11;fontStyle=1;spacing=4;" parent="LjmkipDc2EaUrjd0nFta-33" connectable="0" vertex="1">
            <mxGeometry x="-1" relative="1" as="geometry">
              <mxPoint as="offset" />
            </mxGeometry>
          </mxCell>
        </object>
        <object label="1" element="card" id="LjmkipDc2EaUrjd0nFta-35">
          <mxCell style="resizable=0;align=right;verticalAlign=bottom;labelBackgroundColor=none;fontSize=11;fontStyle=1;spacing=4;" parent="LjmkipDc2EaUrjd0nFta-33" connectable="0" vertex="1">
            <mxGeometry x="1" relative="1" as="geometry">
              <mxPoint as="offset" />
            </mxGeometry>
          </mxCell>
        </object>
        <object label="country" join_table="" join_column="DEPARTURE_COUNTRY" inverse_join_column="" mapped_by="" unique="" cascade="" inverse_name="" element="relation" fetch_type="" orphan_removal="" xml_element="" sequence="3" label_name="Pays de provenance" label_nameEn="Departure country" id="LjmkipDc2EaUrjd0nFta-36">
          <mxCell style="endArrow=classic;shadow=0;strokeWidth=1;rounded=0;endFill=1;endSize=10;startSize=10;sourcePerimeterSpacing=0;startArrow=oval;startFill=1;align=center;snapToPoint=1;targetPerimeterSpacing=0;fontSize=11;spacingRight=0;spacingBottom=2;spacing=0;fixDash=1;fontColor=#4D9900;fillColor=#d5e8d4;strokeColor=#82B366;" parent="Sb3ObpHVFGHvWsoK8jhT-4" source="LjmkipDc2EaUrjd0nFta-1" target="LjmkipDc2EaUrjd0nFta-42" edge="1">
            <mxGeometry x="-0.0123" relative="1" as="geometry">
              <mxPoint x="480" y="310" as="sourcePoint" />
              <mxPoint x="-56" y="597" as="targetPoint" />
              <mxPoint as="offset" />
            </mxGeometry>
          </mxCell>
        </object>
        <object label="n" element="card" id="LjmkipDc2EaUrjd0nFta-37">
          <mxCell style="resizable=0;align=left;verticalAlign=bottom;labelBackgroundColor=none;fontSize=11;fontStyle=1;spacing=4;" parent="LjmkipDc2EaUrjd0nFta-36" connectable="0" vertex="1">
            <mxGeometry x="-1" relative="1" as="geometry">
              <mxPoint as="offset" />
            </mxGeometry>
          </mxCell>
        </object>
        <object label="1" element="card" id="LjmkipDc2EaUrjd0nFta-38">
          <mxCell style="resizable=0;align=right;verticalAlign=bottom;labelBackgroundColor=none;fontSize=11;fontStyle=1;spacing=4;" parent="LjmkipDc2EaUrjd0nFta-36" connectable="0" vertex="1">
            <mxGeometry x="1" relative="1" as="geometry">
              <mxPoint as="offset" />
            </mxGeometry>
          </mxCell>
        </object>
        <object label="CorePays" element="existingClass" description="" entity="org.guce.rep.entities.CorePays" xml="" id="LjmkipDc2EaUrjd0nFta-42">
          <mxCell style="swimlane;fontStyle=3;align=center;verticalAlign=top;childLayout=stackLayout;horizontal=1;startSize=26;horizontalStack=0;resizeParent=1;resizeLast=0;collapsible=1;marginBottom=0;rounded=0;shadow=0;strokeWidth=1;fillColor=#f0a30a;strokeColor=#BD7000;container=1;snapToPoint=1;fixDash=1;dropTarget=1;expand=1;treeMoving=1;fontSize=11;fontColor=#000000;" parent="Sb3ObpHVFGHvWsoK8jhT-4" vertex="1">
            <mxGeometry x="270" y="290.0003896103896" width="107.91" height="56.62714285714285" as="geometry">
              <mxRectangle x="230" y="140" width="160" height="26" as="alternateBounds" />
            </mxGeometry>
          </mxCell>
        </object>
        <mxCell id="LjmkipDc2EaUrjd0nFta-43" value="" style="line;strokeWidth=1;fillColor=none;align=left;verticalAlign=middle;spacingTop=-1;spacingLeft=3;spacingRight=3;rotatable=0;labelPosition=right;points=[];portConstraint=eastwest;fontSize=11;" parent="LjmkipDc2EaUrjd0nFta-42" vertex="1">
          <mxGeometry y="26" width="107.91" height="13.210113151304316" as="geometry" />
        </mxCell>
        <object label="RepTransportMode" element="existingClass" description="" entity="org.guce.rep.entities.RepTransportMode" xml="" id="LjmkipDc2EaUrjd0nFta-44">
          <mxCell style="swimlane;fontStyle=3;align=center;verticalAlign=top;childLayout=stackLayout;horizontal=1;startSize=26;horizontalStack=0;resizeParent=1;resizeLast=0;collapsible=1;marginBottom=0;rounded=0;shadow=0;strokeWidth=1;fillColor=#f0a30a;strokeColor=#BD7000;container=1;snapToPoint=1;fixDash=1;dropTarget=1;expand=1;treeMoving=1;fontSize=11;fontColor=#000000;" parent="Sb3ObpHVFGHvWsoK8jhT-4" vertex="1">
            <mxGeometry x="450" y="49.998889195910465" width="150" height="58.60968085106383" as="geometry">
              <mxRectangle x="230" y="140" width="160" height="26" as="alternateBounds" />
            </mxGeometry>
          </mxCell>
        </object>
        <mxCell id="LjmkipDc2EaUrjd0nFta-45" value="" style="line;strokeWidth=1;fillColor=none;align=left;verticalAlign=middle;spacingTop=-1;spacingLeft=3;spacingRight=3;rotatable=0;labelPosition=right;points=[];portConstraint=eastwest;fontSize=11;" parent="LjmkipDc2EaUrjd0nFta-44" vertex="1">
          <mxGeometry y="26" width="150" height="13.210113151304316" as="geometry" />
        </mxCell>
        <object label="transportMode" join_table="" join_column="TRANSPORT_MODE" inverse_join_column="" mapped_by="" unique="" cascade="" inverse_name="" element="relation" fetch_type="" orphan_removal="" xml_element="" sequence="4" label_name="Mode de transport" id="LjmkipDc2EaUrjd0nFta-46">
          <mxCell style="endArrow=classic;shadow=0;strokeWidth=1;rounded=0;endFill=1;elbow=vertical;endSize=10;startSize=10;sourcePerimeterSpacing=0;startArrow=oval;startFill=1;align=center;snapToPoint=1;targetPerimeterSpacing=0;fontSize=11;spacingRight=0;spacingBottom=2;spacing=0;fixDash=1;fontColor=#4D9900;fillColor=#d5e8d4;strokeColor=#82B366;" parent="Sb3ObpHVFGHvWsoK8jhT-4" source="LjmkipDc2EaUrjd0nFta-1" target="LjmkipDc2EaUrjd0nFta-44" edge="1">
            <mxGeometry x="0.2632" y="3" relative="1" as="geometry">
              <mxPoint x="205.41666666666666" y="530.5925925925925" as="sourcePoint" />
              <mxPoint x="351.625" y="432.074074074074" as="targetPoint" />
              <mxPoint as="offset" />
            </mxGeometry>
          </mxCell>
        </object>
        <object label="n" element="card" id="LjmkipDc2EaUrjd0nFta-47">
          <mxCell style="resizable=0;align=left;verticalAlign=bottom;labelBackgroundColor=none;fontSize=11;fontStyle=1;spacing=4;" parent="LjmkipDc2EaUrjd0nFta-46" connectable="0" vertex="1">
            <mxGeometry x="-1" relative="1" as="geometry">
              <mxPoint as="offset" />
            </mxGeometry>
          </mxCell>
        </object>
        <object label="1" element="card" id="LjmkipDc2EaUrjd0nFta-48">
          <mxCell style="resizable=0;align=right;verticalAlign=bottom;labelBackgroundColor=none;fontSize=11;fontStyle=1;spacing=4;" parent="LjmkipDc2EaUrjd0nFta-46" connectable="0" vertex="1">
            <mxGeometry x="1" relative="1" as="geometry">
              <mxPoint as="offset" />
            </mxGeometry>
          </mxCell>
        </object>
        <object label="modelMark" join_table="" join_column="" inverse_join_column="" mapped_by="" unique="" cascade="" inverse_name="" element="relation" fetch_type="" orphan_removal="" xml_element="" sequence="3" label_name="Marque du modèle" label_nameEn="Model Mark" id="LjmkipDc2EaUrjd0nFta-49">
          <mxCell style="endArrow=classic;shadow=0;strokeWidth=1;rounded=0;endFill=1;endSize=10;startSize=10;sourcePerimeterSpacing=0;startArrow=oval;startFill=1;align=center;snapToPoint=1;targetPerimeterSpacing=0;fontSize=11;spacingRight=0;spacingBottom=2;spacing=0;fixDash=1;fontColor=#4D9900;fillColor=#d5e8d4;strokeColor=#82B366;" parent="Sb3ObpHVFGHvWsoK8jhT-4" source="LjmkipDc2EaUrjd0nFta-1" target="Sgkkib2w53f4yiCSM2_J-21" edge="1">
            <mxGeometry x="-0.0123" relative="1" as="geometry">
              <mxPoint x="205.41666666666666" y="530.5925925925925" as="sourcePoint" />
              <mxPoint x="351.625" y="432.074074074074" as="targetPoint" />
              <mxPoint as="offset" />
            </mxGeometry>
          </mxCell>
        </object>
        <object label="n" element="card" id="LjmkipDc2EaUrjd0nFta-50">
          <mxCell style="resizable=0;align=left;verticalAlign=bottom;labelBackgroundColor=none;fontSize=11;fontStyle=1;spacing=4;" parent="LjmkipDc2EaUrjd0nFta-49" connectable="0" vertex="1">
            <mxGeometry x="-1" relative="1" as="geometry">
              <mxPoint as="offset" />
            </mxGeometry>
          </mxCell>
        </object>
        <object label="1" element="card" id="LjmkipDc2EaUrjd0nFta-51">
          <mxCell style="resizable=0;align=right;verticalAlign=bottom;labelBackgroundColor=none;fontSize=11;fontStyle=1;spacing=4;" parent="LjmkipDc2EaUrjd0nFta-49" connectable="0" vertex="1">
            <mxGeometry x="1" relative="1" as="geometry">
              <mxPoint as="offset" />
            </mxGeometry>
          </mxCell>
        </object>
      </root>
    </mxGraphModel>
  </diagram>
</mxfile>
